<svg xmlns="http://www.w3.org/2000/svg" width="47.281" height="122" viewBox="0 0 47.281 122">
  <defs>
    <style>
      .cls-1 {
        fill-rule: evenodd;
      }
    </style>
  </defs>
  <path id="Forma_1" data-name="Forma 1" class="cls-1" d="M24.849,30.637a7.285,7.285,0,1,1-7.24,7.285A7.263,7.263,0,0,1,24.849,30.637Zm-2.4,36.492a7.68,7.68,0,0,0,3.512,6.126,50.535,50.535,0,0,0-.356,22.928,3.673,3.673,0,1,0,7.163-1.628,43.3,43.3,0,0,1,.964-21.777,6.579,6.579,0,0,0,2.84-5.649c-0.306-4.566-.85-9.1-1.413-13.641-0.476-3.843-2.851-7.106-7.06-7.106a7.573,7.573,0,0,0-4.64,1.786c-4.357-1.22-8.566-3.594-9.589-8.128,0.023-.338.034-0.691,0.023-1.076-0.079-3.071-1.552-5.306-2.977-7.466-1.436-2.179-2.793-4.237-2.757-7.08H8.1V23.639l-0.764.769-0.225,0c0,0.076,0,.151,0,0.227l-0.652-.194L8.1,22.786v-1.6L6.3,23v1.4l-0.1-.03a6.509,6.509,0,0,1-2.231,3.1,8.459,8.459,0,0,0-2.232,2.744C-0.01,33.866.571,39.535,2.977,42.342a8.359,8.359,0,0,0,5.711,2.843c2.468,4.717,7.151,7.808,12.486,9.409C21.689,58.763,22.173,62.935,22.452,67.129ZM6.876,38.528a16.676,16.676,0,0,0,1.293,5.546,7.5,7.5,0,0,1-4.4-2.431c-2.125-2.478-2.642-7.71-1.084-10.981A7.519,7.519,0,0,1,4.676,28.25a7.742,7.742,0,0,0,2.419-3.237H7.119c0.145,2.862,1.553,5,2.919,7.072a21.323,21.323,0,0,1,2.138,3.788C10.12,34.5,6.677,35.372,6.876,38.528ZM8.1,19.147L6.3,20.956v1.187l1.8-1.809V19.147Zm0-1.568H7.6V0H6.8V17.579H6.3V20.1L8.1,18.3V17.579ZM45.306,72.264c-0.261.571-5.959,13.25-6.736,26.8H15.764V122h2.974v-9.226H38.48V122h2.973V102.057c0-13.953,6.49-28.4,6.555-28.549ZM38.48,109.787H18.737v-7.73H38.48v7.73Z" transform="translate(-0.719)"/>
</svg>
